<svg id="Layer_1" data-name="Layer 1" xmlns="http://www.w3.org/2000/svg" viewBox="0 0 31.13 21.43"><path d="M13.83,20.89l8.91.8c2.54.23,5.15.39,7.66.79a8.14,8.14,0,0,1,1.62.39,5.45,5.45,0,0,1,.76.39c.17.09.42.29.11.06.46.34.89.71,1.32,1.08.6.52,1.18,1,1.73,1.61a6.89,6.89,0,0,1,.62.7,1.53,1.53,0,0,0,.19.3c.29.21-.77.09.28-1a1.5,1.5,0,0,0,2.12,2.12c1.5-1.5-.25-3.44-1.35-4.53a16.58,16.58,0,0,0-4.12-3.3c-2.62-1.25-6-1.13-8.81-1.43-3.67-.4-7.36-.69-11-1-1.92-.16-1.91,2.84,0,3Z" transform="translate(-9.56 -16.2)"/><path d="M36.43,27.25c-.12.79-.54.93-1.26,1.2-.92.33-1.8.73-2.72,1.06a22.55,22.55,0,0,1-6.44.94c-2.15.11-4.35-.06-6.51-.06a22.86,22.86,0,0,1-3.3-.29,14.3,14.3,0,0,0-3-.38l.39,3a4.28,4.28,0,0,0,.8-.31c1.75-.82.23-3.41-1.51-2.59h-.08c-1.61.42-1.32,3.06.4,2.95a19.44,19.44,0,0,1,3.2.4,29.66,29.66,0,0,0,4,.23c2.63-.1,5.22.17,7.86-.06a25.3,25.3,0,0,0,3.78-.54,26.89,26.89,0,0,0,3.32-1.2c1.8-.68,3.62-1.34,3.95-3.5.29-1.89-2.6-2.7-2.9-.8Z" transform="translate(-9.56 -16.2)"/><path d="M12.36,18.38a4.82,4.82,0,0,0-2.14,3.1A14,14,0,0,0,9.56,25a9,9,0,0,0,1,4.43,8.15,8.15,0,0,0,.77,1.08l.39.53.15.23.06.1a1.17,1.17,0,0,1-.15-.58,1.5,1.5,0,0,0,3,0c0-.91-.82-1.71-1.31-2.39a5.12,5.12,0,0,1-.86-2.67,8.82,8.82,0,0,1,.39-2.9c.06-.23.12-.46.19-.68s.09-.27.14-.4c.14-.39-.13.2.07-.15a2.69,2.69,0,0,0,.16-.29c.07-.11.16-.22,0-.05a2.06,2.06,0,0,1,.25-.26c-.18.16-.06.05.08,0a1.51,1.51,0,0,0,.54-2,1.54,1.54,0,0,0-2.05-.54Z" transform="translate(-9.56 -16.2)"/><path d="M10.58,29.42a1.9,1.9,0,0,1,.28.29l-.23-.3a5.5,5.5,0,0,1,.63,1.2,5.36,5.36,0,0,0,.91,1.45l2.12-2.12a4.25,4.25,0,0,1-.6-.6l.24.3a3.88,3.88,0,0,1-.51-.88l.15.36c-.19-.44-.22-.93-.39-1.37a1.59,1.59,0,0,0-.69-.9,1.5,1.5,0,0,0-2.05.54,1.54,1.54,0,0,0-.15,1.15,6.06,6.06,0,0,0,.27.75,11.72,11.72,0,0,0,.55,1.19,4.41,4.41,0,0,0,1.55,1.79,1.52,1.52,0,0,0,1.16.15,1.49,1.49,0,0,0,.89-.69,1.45,1.45,0,0,0,.15-1.15,1.55,1.55,0,0,0-.69-.9L14,29.59l.31.24a2.21,2.21,0,0,1-.4-.41l.23.3a7,7,0,0,1-.88-1.58l.15.36a7.51,7.51,0,0,1-.27-.75l-2.89.79a7,7,0,0,1,.23.9A5.11,5.11,0,0,0,11,30.58a4.77,4.77,0,0,0,1.2,1.48,1,1,0,0,0,.48.31,1.06,1.06,0,0,0,.58.13,1.5,1.5,0,0,0,1.5-1.5,1.68,1.68,0,0,0-.44-1.06l-.13-.15.24.31a6.84,6.84,0,0,1-.7-1.34,5.67,5.67,0,0,0-.33-.65,3.45,3.45,0,0,0-.66-.81,1.21,1.21,0,0,0-.49-.31,1.27,1.27,0,0,0-.58-.13,1.58,1.58,0,0,0-1.06.44,1.56,1.56,0,0,0-.44,1.06,1.48,1.48,0,0,0,.44,1.06Z" transform="translate(-9.56 -16.2)"/><path d="M35.15,25.25a8.82,8.82,0,0,0,3.29,2.37V25A17.81,17.81,0,0,0,36,27a11,11,0,0,1-2.58,1.67,19.23,19.23,0,0,1-6.81,1.61c-2.55.21-5.11.18-7.67.34a31.64,31.64,0,0,1-5.75.22c-1.89-.31-2.7,2.58-.8,2.89a26.23,26.23,0,0,0,6.07-.08c2.86-.19,5.75-.14,8.61-.41a23.7,23.7,0,0,0,7.2-1.68c2.21-1,3.73-2.61,5.67-3.9A1.52,1.52,0,0,0,40,25a7,7,0,0,1-2.69-1.9c-1.21-1.51-3.32.63-2.12,2.12Z" transform="translate(-9.56 -16.2)"/><path d="M11.62,20.16a31.44,31.44,0,0,0-1.42,6,8.65,8.65,0,0,0,.31,3.2,4.21,4.21,0,0,0,.78,1.34c.12.16.26.31.39.47s.12.15,0,0c.08.16.1.17,0,0l1.45-1.9s.55.13.26.05c.15.12.18.13.1.06s-.06-.06,0,.07a2.26,2.26,0,0,1-.16-.26l-.09-.18q.09.21,0,.06a7.62,7.62,0,0,1-.33-1.31L10.32,29A7.3,7.3,0,0,1,11,30.44c.26.57.68.95,1,1.48l1.29-2.26a.42.42,0,0,1,.31.09c-.14-.09-.13-.07,0,.05-.09,0-.25-.36-.06,0a2.58,2.58,0,0,1-.18-.32c.15.3,0-.11-.06-.18-.16-.52-.24-1.05-.35-1.57l-2.89.8c.23.73.26,1.5.43,2.26a4.09,4.09,0,0,0,1.37,2.31,1.56,1.56,0,0,0,2.13,0,1.52,1.52,0,0,0,0-2.12c-.33-.26-.36-.28-.49-.56.1.22-.05-.16-.07-.21s-.08-.35-.11-.53a14.56,14.56,0,0,0-.37-1.95,1.5,1.5,0,0,0-2.89.8c.39,1.91.93,3.93,3.2,4.17,1.19.12,1.79-1.35,1.3-2.26a10.72,10.72,0,0,0-.62-.88,2.05,2.05,0,0,1-.15-.22s-.18-.35-.1-.17a7.66,7.66,0,0,0-.74-1.68,1.51,1.51,0,0,0-2.75,1.15c.29,1.68,1.09,3.61,3,3.72a1.51,1.51,0,0,0,1.45-1.9,5,5,0,0,0-.77-1.29,3.18,3.18,0,0,1-.51-.66c0,.11,0,.08,0-.1s-.07-.28-.1-.42,0-.28,0-.42a8.19,8.19,0,0,1,0-1.4A28.4,28.4,0,0,1,14.51,21a1.5,1.5,0,0,0-2.89-.8Z" transform="translate(-9.56 -16.2)"/><path d="M34.85,24.85a8.29,8.29,0,0,0-2,1.55,5,5,0,0,1-2,1c-1.83.5-3.79.76-5.66,1.09-2,.36-4.11.76-6.18,1-1,.09-1.91.12-2.88.12a13.35,13.35,0,0,1-2.36.06l-.4,2.95.09,0a1.55,1.55,0,0,0,1.84-1.05,1.51,1.51,0,0,0-1.05-1.85,5.24,5.24,0,0,0-.88-.08c-1.62.05-2.13,2.62-.4,2.95a10.83,10.83,0,0,0,2.48,0c1.13,0,2.24,0,3.36-.1,2.27-.21,4.53-.65,6.79-1a58.51,58.51,0,0,0,6-1.16,7.89,7.89,0,0,0,2.71-1.21,11.34,11.34,0,0,1,2.06-1.61c1.76-.78.24-3.36-1.51-2.59Z" transform="translate(-9.56 -16.2)"/><path d="M12.35,29.4a13.33,13.33,0,0,0,5.5.71C19.91,30,22,30,24.07,29.74c2.26-.26,4.5-.74,6.75-1a24.61,24.61,0,0,0,3.2-.56,29.15,29.15,0,0,1,2.77-.94,1.51,1.51,0,0,0,1.05-1.84A1.54,1.54,0,0,0,36,24.31a18.58,18.58,0,0,0-2.34.82,18.44,18.44,0,0,1-3,.59c-2.19.29-4.36.72-6.54,1-1.85.25-3.79.25-5.66.35a12.06,12.06,0,0,1-5.27-.57c-1.79-.72-2.57,2.18-.8,2.89Z" transform="translate(-9.56 -16.2)"/><path d="M11.39,27.17a19.71,19.71,0,0,0,5.69,1.09c1.89.13,3.79.25,5.68.23a29.93,29.93,0,0,0,5.75-.61,41.64,41.64,0,0,0,5.88-1.42c1.8-.66,1-3.56-.79-2.89a44.21,44.21,0,0,1-5.48,1.33,26,26,0,0,1-5.36.59c-3.45,0-7.32,0-10.57-1.21-1.81-.7-2.59,2.2-.8,2.89Z" transform="translate(-9.56 -16.2)"/><path d="M14.37,23.68a2.06,2.06,0,0,1,.33-.33l-.3.23a2.7,2.7,0,0,1,.33-.22,1.18,1.18,0,0,0,.42-.38,1.26,1.26,0,0,0,.27-.51,1.11,1.11,0,0,0,0-.6,1,1,0,0,0-.17-.56L15,21a1.49,1.49,0,0,0-.66-.39l-.4-.05a1.57,1.57,0,0,0-.76.2,6,6,0,0,0-.65.48,1.87,1.87,0,0,0-.32.31,1.21,1.21,0,0,0-.31.48,1.14,1.14,0,0,0-.12.58,1.17,1.17,0,0,0,.12.58,1.37,1.37,0,0,0,.31.48l.31.23a1.43,1.43,0,0,0,.76.21l.39-.06a1.54,1.54,0,0,0,.67-.38Z" transform="translate(-9.56 -16.2)"/><path d="M14.61,23.14a28.77,28.77,0,0,1,9.7-.65,26.74,26.74,0,0,1,9.62,1.84,1.54,1.54,0,0,0,2-.53,1.52,1.52,0,0,0-.53-2.06A29.77,29.77,0,0,0,24.7,19.51a32.34,32.34,0,0,0-10.88.74c-1.85.54-1.07,3.43.79,2.89Z" transform="translate(-9.56 -16.2)"/><path d="M12.65,24.44a4.57,4.57,0,0,1,2-.7c.81-.17,1.62-.37,2.44-.47a38.93,38.93,0,0,1,5.29-.2,33.89,33.89,0,0,1,5.4.57,26.1,26.1,0,0,1,5.47,1.3,1.57,1.57,0,0,0,2.05-.54,1.52,1.52,0,0,0-.53-2.06,29.89,29.89,0,0,0-6.2-1.6,39.51,39.51,0,0,0-6.61-.68,33.27,33.27,0,0,0-6.46.44,10.66,10.66,0,0,0-5,1.82c-1.49,1.22.64,3.33,2.13,2.12Z" transform="translate(-9.56 -16.2)"/><path d="M37.75,25.53A5.38,5.38,0,0,1,35.5,27.4c-1.12.48-2.17,1.07-3.26,1.6A21.51,21.51,0,0,1,25,31.21c-2.56.3-5.1.71-7.66,1.07-.59.09-1.19.13-1.78.23-.27,0-1.15.38-1.42.26s-.3-.79-.36-1.08-.62-1.61-.47-1.92c.8-1.74-1.78-3.27-2.59-1.52-.74,1.59-.15,2.84.21,4.44.31,1.39,1,2.7,2.51,3,1.24.27,2.77-.26,4-.43,1.81-.24,3.61-.61,5.42-.83,3.24-.38,6.25-.72,9.25-2.1,1.46-.67,2.86-1.48,4.33-2.12a8,8,0,0,0,3.38-2.57c1.22-1.47-.89-3.61-2.12-2.12Z" transform="translate(-9.56 -16.2)"/><path d="M12.42,17.48a21,21,0,0,0-1.84,4.36,10.36,10.36,0,0,0-.43,5q.28,2.63.78,5.23a22.42,22.42,0,0,0,.59,2.55,24.84,24.84,0,0,0,1,2.3l2.59-1.51h-.05a1.54,1.54,0,0,0-1.84-1.05,1.52,1.52,0,0,0-1.05,1.85,3.13,3.13,0,0,0,.35.71,1.5,1.5,0,0,0,2.59-1.51,14.64,14.64,0,0,1-.82-1.91c-.21-.73-.35-1.48-.49-2.23-.28-1.47-.52-2.94-.68-4.43a8.62,8.62,0,0,1,.32-4.22A17.37,17.37,0,0,1,15,19c1.09-1.6-1.51-3.1-2.59-1.52Z" transform="translate(-9.56 -16.2)"/><path d="M14.94,34.81a18.63,18.63,0,0,1-2.18-8.46,14.72,14.72,0,0,1,.68-4.22,14.28,14.28,0,0,1,1.49-3.69l-2.74-1.15a5.37,5.37,0,0,0-.11.7,1.5,1.5,0,0,0,3,0q0,.42,0,.09a1.51,1.51,0,0,0-2.74-1.15,16.8,16.8,0,0,0-1.76,4.27,18.78,18.78,0,0,0-.82,5.15,21.91,21.91,0,0,0,2.59,10c.85,1.74,3.44.22,2.59-1.51Z" transform="translate(-9.56 -16.2)"/><path d="M13.18,19.44h0l.24.31h0a1.52,1.52,0,0,0,.68.4h0l.4.05a.93.93,0,0,0,.21,0,1,1,0,0,0,.57-.18h0l.31-.24,0,0,.13-.17.12-.16,0,0a1.12,1.12,0,0,0,.18-.56,1.11,1.11,0,0,0,0-.6,1.26,1.26,0,0,0-.27-.51,1.18,1.18,0,0,0-.42-.38L15,17.18a1.36,1.36,0,0,0-.8,0l-.36.15a1.61,1.61,0,0,0-.54.53.13.13,0,0,1,0,.05l.24-.31,0,0,.3-.24h0l.36-.15h0l.4-.06h0l.4.06h0l.36.15h0l.31.23h0l.23.3h0a1.13,1.13,0,0,0-.39-.42,1.05,1.05,0,0,0-.51-.27,1.22,1.22,0,0,0-.6,0,1.09,1.09,0,0,0-.55.18l-.31.23a1.54,1.54,0,0,0-.38.67l-.06.4a1.42,1.42,0,0,0,.21.75Z" transform="translate(-9.56 -16.2)"/><path d="M14.6,20.19a1,1,0,0,1,.35,0l-.39-.05a1,1,0,0,1,.28.08l-.36-.16.1.05a1.12,1.12,0,0,0,.56.18,1,1,0,0,0,.6,0l.36-.15a1.18,1.18,0,0,0,.42-.38.92.92,0,0,0,.19-.33,1.15,1.15,0,0,0,.13-.58l-.06-.4a1.57,1.57,0,0,0-.38-.66,4.53,4.53,0,0,0-.63-.45,2.5,2.5,0,0,1-.35-.21l.31.23a1,1,0,0,1-.18-.17l.24.3a.42.42,0,0,1-.09-.14l-2.36,1.82c.19.22.45.37.63.6l1.82-2.36a1.43,1.43,0,0,1-.24-.16l.3.23a10.34,10.34,0,0,0-1.1-.88,1.26,1.26,0,0,0-.56-.17,1.11,1.11,0,0,0-.6,0l-.36.15a1.31,1.31,0,0,0-.42.39.73.73,0,0,0-.19.33,1.06,1.06,0,0,0-.13.58l0,.4a1.49,1.49,0,0,0,.39.66,5,5,0,0,0,.55.46l.29.2c.2.12.39.24.58.38L14,19.73a2.16,2.16,0,0,1,.4.4l-.23-.31,0,.07a1.18,1.18,0,0,0,.38.42,1.26,1.26,0,0,0,.51.27,1.11,1.11,0,0,0,.6,0,1.12,1.12,0,0,0,.56-.18,1.5,1.5,0,0,0,.69-.89l.05-.4a1.57,1.57,0,0,0-.2-.76,4,4,0,0,0-.53-.63,4.68,4.68,0,0,0-.62-.48c-.24-.16-.48-.29-.71-.46l.31.23-.25-.22-1.82,2.36a1.14,1.14,0,0,1,.23.15l-.3-.23.41.35c.15.13.32.26.48.38a1.14,1.14,0,0,0,.23.15,1.09,1.09,0,0,0,.55.18,1.22,1.22,0,0,0,.6,0l.36-.15a1,1,0,0,0,.42-.39.69.69,0,0,0,.19-.33,1,1,0,0,0,.13-.57l-.05-.4a1.47,1.47,0,0,0-.39-.67c-.18-.22-.43-.38-.63-.6A1.11,1.11,0,0,0,15,16.7a1.27,1.27,0,0,0-.58-.13l-.39.06a1,1,0,0,0-.51.27.59.59,0,0,0-.27.27,1,1,0,0,0-.27.51l-.06.39a1.43,1.43,0,0,0,.21.76,2.43,2.43,0,0,0,.93,1c.17.11.36.19.53.32l-.31-.23h0l1.82-2.36a2.32,2.32,0,0,0-.72-.27,2.55,2.55,0,0,0-.78-.06,1.14,1.14,0,0,0-.58.12,1.17,1.17,0,0,0-.48.31,1.11,1.11,0,0,0-.31.49,1.06,1.06,0,0,0-.13.58l.05.39a1.47,1.47,0,0,0,.39.67l.3.23a1.58,1.58,0,0,0,.76.21Z" transform="translate(-9.56 -16.2)"/><path d="M15.64,36.45l.11-.15-.24.31c.29-.38.66-.68,1-1l-2.35-1.82L14,34l.23-.31a4.7,4.7,0,0,1-.72.76L16,35.88v0l-.15.36a1,1,0,0,1,.08-.14l-.23.31a.91.91,0,0,1,.17-.17l-.3.23a2.3,2.3,0,0,1,.33-.21,4.41,4.41,0,0,0,.6-.44,1.14,1.14,0,0,0,.31-.48,1.36,1.36,0,0,0,0-1.16,1,1,0,0,0-.31-.48l-.3-.24a1.54,1.54,0,0,0-.76-.2l-.39,0a1.47,1.47,0,0,0-.67.39l0,0,.3-.23c-.15.12-.33.21-.5.32a3.9,3.9,0,0,0-.4.31.52.52,0,0,0-.11.1l0,0c-.09.11-.18.23-.26.35l0,.06c-.07.13-.12.27-.18.41l-.05.4a1.17,1.17,0,0,0,.13.58.79.79,0,0,0,.19.33,1.18,1.18,0,0,0,.42.38l.36.15.4.06a1.15,1.15,0,0,0,.58-.13,1.24,1.24,0,0,0,.48-.31,6.46,6.46,0,0,0,1.12-1.27,1.16,1.16,0,0,0,.18-.56,1.22,1.22,0,0,0,0-.6l-.15-.36a1.12,1.12,0,0,0-.39-.42.69.69,0,0,0-.33-.19,1.06,1.06,0,0,0-.58-.13l-.39.05a1.47,1.47,0,0,0-.67.39c-.17.2-.37.39-.56.58a7.08,7.08,0,0,0-.74.9,1.16,1.16,0,0,0-.18.56,1.22,1.22,0,0,0,0,.6,1.15,1.15,0,0,0,.27.51,1.13,1.13,0,0,0,.42.39l.36.15a1.51,1.51,0,0,0,.79,0L15.1,37a1.55,1.55,0,0,0,.54-.54Z" transform="translate(-9.56 -16.2)"/></svg>